<?xml version="1.0" standalone="no"?>
<!DOCTYPE svg PUBLIC "-//W3C//DTD SVG 20010904//EN"
 "http://www.w3.org/TR/2001/REC-SVG-20010904/DTD/svg10.dtd">
<svg version="1.0" xmlns="http://www.w3.org/2000/svg"
 width="256.000000pt" height="256.000000pt" viewBox="0 0 256.000000 256.000000"
 preserveAspectRatio="xMidYMid meet">

<g transform="translate(0.000000,256.000000) scale(0.100000,-0.100000)"
fill="#000000" stroke="none">
<path d="M1115 2549 c-93 -13 -233 -50 -323 -87 -333 -137 -608 -430 -722
-770 -50 -152 -64 -242 -64 -412 0 -357 120 -649 373 -901 188 -189 395 -300
661 -356 117 -24 363 -24 480 0 257 54 463 163 646 339 191 185 312 403 370
673 24 111 24 379 0 490 -58 267 -167 469 -355 656 -188 189 -395 300 -656
354 -97 20 -314 27 -410 14z m252 -323 c18 -20 33 -46 33 -60 0 -17 10 -31 35
-46 108 -67 221 -259 274 -468 66 -259 67 -601 2 -851 -22 -81 -32 -97 -56
-87 -19 7 -19 10 13 151 94 410 10 923 -188 1138 -65 71 -89 86 -102 63 -14
-24 -63 -46 -103 -46 -69 0 -125 54 -125 122 0 45 19 78 60 106 52 35 113 26
157 -22z m-413 -376 c62 -10 84 -26 63 -47 -10 -10 -33 -10 -105 -2 -164 20
-308 -16 -377 -93 -46 -50 -57 -79 -56 -153 1 -69 8 -99 47 -185 19 -44 24
-64 16 -72 -20 -20 -43 1 -71 64 -109 243 -31 425 207 482 68 17 194 20 276 6z
m909 -5 c220 -46 313 -209 242 -420 -43 -128 -154 -293 -188 -279 -26 10 -21
28 31 96 95 127 142 268 121 367 -22 105 -113 171 -263 190 -83 10 -102 20
-93 45 8 20 59 21 150 1z m-325 -36 c-2 -18 -20 -26 -98 -49 -472 -135 -931
-529 -957 -820 -5 -57 -5 -60 16 -60 35 0 79 -28 96 -60 25 -49 20 -104 -16
-144 -52 -60 -126 -61 -186 -1 -27 27 -33 40 -33 76 0 44 30 109 50 109 5 0
10 13 10 30 0 95 63 247 149 361 109 143 316 314 511 421 132 73 358 156 428
157 29 1 33 -2 30 -20z m-219 -503 c27 -14 51 -53 51 -82 0 -29 -29 -71 -58
-83 -60 -25 -126 20 -126 86 0 27 7 42 32 64 36 32 60 36 101 15z m-588 -207
c218 -210 520 -372 799 -429 128 -27 308 -24 377 4 l42 18 -6 47 c-10 84 40
141 122 141 76 0 125 -51 125 -129 0 -80 -89 -141 -164 -113 -25 10 -42 8
-106 -15 -65 -23 -90 -26 -195 -26 -197 0 -366 46 -600 163 -77 38 -182 100
-234 137 -117 84 -261 219 -261 244 0 35 37 20 101 -42z m195 -396 c4 -10 26
-59 50 -108 103 -213 257 -304 397 -236 42 20 108 83 169 162 25 32 27 33 44
17 17 -17 16 -20 -21 -73 -84 -122 -177 -179 -290 -179 -76 0 -124 18 -198 76
-91 72 -224 318 -190 351 12 13 34 7 39 -10z"/>
<path d="M1244 2209 c-22 -11 -44 -48 -44 -75 0 -24 47 -64 75 -64 33 0 75 41
75 73 0 51 -61 88 -106 66z"/>
<path d="M435 805 c-39 -39 -32 -86 17 -111 50 -26 108 9 108 66 0 29 -44 70
-75 70 -14 0 -37 -11 -50 -25z"/>
<path d="M2015 805 c-33 -32 -31 -60 5 -97 25 -24 36 -29 58 -24 34 9 62 41
62 73 0 32 -42 73 -75 73 -14 0 -37 -11 -50 -25z"/>
</g>
</svg>
